{"title":"Ip Man The Final Fight 2013 BRRip 720p x264 AAC - PRiSTiNE","uid":8715744,"size":670759174,"categoryP":"video","categoryS":"hd___movies","magnet":"?xt=urn:btih:f8a8b27767c739c0dbe25e3b5fa87b19c1c3ebe7&amp;dn=Ip+Man+The+Final+Fight+2013+BRRip+720p+x264+AAC+-+PRiSTiNE&amp;tr=udp%3A%2F%2Ftracker.openbittorrent.com%3A80&amp;tr=udp%3A%2F%2Fopen.demonii.com%3A1337&amp;tr=udp%3A%2F%2Ftracker.coppersurfer.tk%3A6969&amp;tr=udp%3A%2F%2Fexodus.desync.com%3A6969","seeders":6,"leechers":1,"uploader":"ValidusVyto","files":-1,"time":1374327244,"description":"_______ Visit us at our Semi Public Bittorrent Community ________\n  &lt;a href=&quot;\nhttp://p2pdl.com&quot; rel=&quot;nofollow&quot; target=&quot;_NEW&quot;&gt;\nhttp://p2pdl.com&lt;/a&gt;  _____________________________ &lt;a href=&quot; http://p2pdl.com&quot; rel=&quot;nofollow&quot; target=&quot;_NEW&quot;&gt; http://p2pdl.com&lt;/a&gt;\n\n\nIp Man The Final Fight 2013 BRRip 720p x264 AAC - PRiSTiNE\n\n\nOriginal Title: Yip Man: Jung Gik Yat Jin\nGenre: Horror \nPlot: In postwar Hong Kong, legendary Wing Chun grandmaster Ip Man is reluctantly\ncalled into action once more, when what begin as simple challenges from rival\nkung fu styles soon draw him into ... \nDirector: Herman Yau\nStars: Anthony Wong Chau-Sang, Gillian Chung, Jordan Chan.\nRated: N/a\n\n\nIMDb: &lt;a href=&quot;\nhttp://www.imdb.com/title/tt2495118/&quot; rel=&quot;nofollow&quot; target=&quot;_NEW&quot;&gt;\nhttp://www.imdb.com/title/tt2495118/&lt;/a&gt;\n\nTrailer:\n\n\nFormat                         : MPEG-4\nFile size                      : 632 MiB\nDuration                       : 1h 40mn\nOverall bit rate               : 881 Kbps\nSource                         : 720p.BluRay.x264-PublicHD\n\nVideo\nFormat                         : AVC\nDuration                       : 1h 40mn\nBit rate                       : 799 Kbps\nWidth                          : 1 264 pixels\nHeight                         : 528 pixels\nDisplay aspect ratio           : 2.40:1\nFrame rate mode                : Constant\nFrame rate                     : 24.000 fps\nStream size                    : 572 MiB (91%)\nWriting library                : x264 core 130 r2273\n\nAudio\nFormat                         : AAC\nBit rate mode                  : Variable\nBit rate                       : 79.9 Kbps\nChannel(s)                     : 2 channels\nChannel positions              : Front: L R\nSampling rate                  : 48.0 KHz\nStream size                    : 57.3 MiB (9%)\nLanguage                       : Chinese(Cantonese)\n\nSubtitle                       : Yes(English)\n &lt;a href=&quot;\nhttp://ultraimg.com/images/KOipn.png&quot; rel=&quot;nofollow&quot; target=&quot;_NEW&quot;&gt;\nhttp://ultraimg.com/images/KOipn.png&lt;/a&gt; &lt;a href=&quot;\nhttp://ultraimg.com/images/ZksIB.png&quot; rel=&quot;nofollow&quot; target=&quot;_NEW&quot;&gt;\nhttp://ultraimg.com/images/ZksIB.png&lt;/a&gt; &lt;a href=&quot;\nhttp://ultraimg.com/images/CVQJ2.png&quot; rel=&quot;nofollow&quot; target=&quot;_NEW&quot;&gt;\nhttp://ultraimg.com/images/CVQJ2.png&lt;/a&gt; &lt;a href=&quot;\nhttp://ultraimg.com/images/HKW7.png&quot; rel=&quot;nofollow&quot; target=&quot;_NEW&quot;&gt;\nhttp://ultraimg.com/images/HKW7.png&lt;/a&gt; &lt;a href=&quot;\nhttp://ultraimg.com/images/oTvRQ.png&quot; rel=&quot;nofollow&quot; target=&quot;_NEW&quot;&gt;\nhttp://ultraimg.com/images/oTvRQ.png&lt;/a&gt; &lt;a href=&quot;\nhttp://ultraimg.com/images/6STym.png&quot; rel=&quot;nofollow&quot; target=&quot;_NEW&quot;&gt;\nhttp://ultraimg.com/images/6STym.png&lt;/a&gt;\n\n\n----------------------------------------------------------------------------------------------------\n\n\nEncoded using revolutionary 10bit encoding, which enables us to provide you more crispier \nand sharper images at small sizes, just make sure you follow our instructions without a fault.\nRecommend to you to use latest version of VLC player. Install K-Lite Codec Pack or shark007 codecs\nin case of any kind of problem in playback (For non-VLC Media Player users). Alternatively, install\nCore AVC codecs, the fastest decoder that there is coupled with Community Center Codec Pack and play\non Windows Media Player Classic. Check sample to be sure.\nEnjoy!\n\nEncoder Notes:Looking For Early Access To Anything You Can Provide DVDScr, R5, DVDR, BluRay, Direct\nAudio, Music Releases and Seedboxes. We require dedicated servers, so as to do more \nand fast releases of movies.\nIf You Got anything to offer please contact us at &quot;&lt;a class=&quot;__cf_email__&quot; href=&quot;/cdn-cgi/l/email-protection&quot; data-cfemail=&quot;46363421062e33352e6825292b&quot;&gt;[email&amp;#160;protected]&lt;/a&gt;&lt;script cf-hash='f9e31' type=&quot;text/javascript&quot;&gt;\n/* &lt;![CDATA[ */!function(){try{var t=&quot;currentScript&quot;in document?document.currentScript:function(){for(var t=document.getElementsByTagName(&quot;script&quot;),e=t.length;e--;)if(t[e].getAttribute(&quot;cf-hash&quot;))return t[e]}();if(t&amp;&amp;t.previousSibling){var e,r,n,i,c=t.previousSibling,a=c.getAttribute(&quot;data-cfemail&quot;);if(a){for(e=&quot;&quot;,r=parseInt(a.substr(0,2),16),n=2;a.length-n;n+=2)i=parseInt(a.substr(n,2),16)^r,e+=String.fromCharCode(i);e=document.createTextNode(e),c.parentNode.replaceChild(e,c)}}}catch(u){}}();/* ]]&gt; */&lt;/script&gt;&quot;.\n\nFace book Fan Page:  \nSearch P2PDL on FB","torrent":{"xt":"urn:btih:f8a8b27767c739c0dbe25e3b5fa87b19c1c3ebe7","amp;dn":"Ip+Man+The+Final+Fight+2013+BRRip+720p+x264+AAC+-+PRiSTiNE","amp;tr":["udp%3A%2F%2Ftracker.openbittorrent.com%3A80","udp%3A%2F%2Fopen.demonii.com%3A1337","udp%3A%2F%2Ftracker.coppersurfer.tk%3A6969","udp%3A%2F%2Fexodus.desync.com%3A6969"],"infoHash":"f8a8b27767c739c0dbe25e3b5fa87b19c1c3ebe7","infoHashBuffer":{"type":"Buffer","data":[248,168,178,119,103,199,57,192,219,226,94,59,95,168,123,25,193,195,235,231]},"announce":[],"urlList":[]}}